<svg id="레이어_1" data-name="레이어 1" xmlns="http://www.w3.org/2000/svg" viewBox="0 0 490.2 456.41"><defs><style>.cls-1{fill:none;stroke:#afafaf;}.cls-2{fill:#6d6d6d;}.cls-3{fill:#5eb76c;}.cls-4{fill:#feb40f;}.cls-5{fill:#3e91c5;}.cls-6{fill:#4a68c6;}.cls-7{fill:#e03872;}.cls-8{fill:#3f3f3f;}.cls-9{fill:#5e5e5e;}.cls-10{fill:#ffbc36;}.cls-11,.cls-12,.cls-13{fill:#fff;}.cls-12{font-size:23.1px;}.cls-12,.cls-13{font-family:NanumBarunGothicOTFBold-KSCpc-EUC-H, NanumBarunGothicOTF;font-weight:700;}.cls-13{font-size:19.8px;}</style></defs><title>businessContent</title><circle class="cls-1" cx="224.38" cy="206.06" r="81.22"/><polygon class="cls-2" points="156.16 154.9 156.53 156.97 117.36 137.27 116.99 135.2 156.16 154.9"/><polygon class="cls-2" points="166.8 271.06 168.77 271.81 131.77 295.33 129.8 294.58 166.8 271.06"/><polygon class="cls-2" points="254.51 282.7 255.42 280.81 275.67 319.7 274.76 321.59 254.51 282.7"/><circle class="cls-3" cx="75.34" cy="105.03" r="75.34"/><polygon class="cls-2" points="280.16 145.94 278.32 145.53 297.07 122.63 298.91 123.04 280.16 145.94"/><circle class="cls-4" cx="344.04" cy="73.49" r="73.49"/><circle class="cls-5" cx="76.44" cy="334.89" r="75.34"/><polygon class="cls-2" points="308.83 223.69 307.56 222.01 351.41 221.84 352.67 223.51 308.83 223.69"/><circle class="cls-6" cx="414.87" cy="253.5" r="75.34"/><circle class="cls-7" cx="283.99" cy="381.08" r="75.34"/><circle class="cls-8" cx="225.88" cy="208.51" r="63.51"/><circle class="cls-4" cx="278.32" cy="144.84" r="6.4"/><circle class="cls-6" cx="306.4" cy="222.92" r="6.4"/><circle class="cls-7" cx="254.76" cy="280.74" r="6.4"/><circle class="cls-5" cx="171.02" cy="268.15" r="6.4"/><circle class="cls-3" cx="157.07" cy="157.63" r="6.4"/><path class="cls-9" d="M239.67,269h-9.8c-1.33,0-2.07-.63-2.06-1.75s.76-1.77,2.07-1.77h19.6c1.3,0,2.07.67,2.07,1.78s-.74,1.74-2.07,1.74Z" transform="translate(-13.8 -28)"/><path class="cls-9" d="M239.67,260.71h9.8c1.32,0,2.07.64,2.07,1.75s-.76,1.77-2.06,1.77h-19.6c-1.31,0-2.07-.66-2.07-1.77s.74-1.75,2.06-1.76Z" transform="translate(-13.8 -28)"/><path class="cls-9" d="M239.26,274.67a6.17,6.17,0,0,1-5.17-3.43c-.32-.58-.35-.87.49-.86q5.12.05,10.24,0c.75,0,.76.24.48.81A6.52,6.52,0,0,1,239.26,274.67Z" transform="translate(-13.8 -28)"/><path class="cls-10" d="M255.75,211.32a24.72,24.72,0,0,0-33,.77,24.16,24.16,0,0,0-7.63,21.09,23.2,23.2,0,0,0,7.95,15.3c2.72,2.38,4.48,5.09,4.67,8.73,0,.63.25.83.91.82,3.65,0,7.3,0,11,0s7.18,0,10.77,0c1,0,1.23-.28,1.3-1.19a11.13,11.13,0,0,1,4.18-8,23.57,23.57,0,0,0,8.51-16.68A24.09,24.09,0,0,0,255.75,211.32Z" transform="translate(-13.8 -28)"/><circle class="cls-11" cx="228.81" cy="219.6" r="6.64" transform="translate(-100.72 221.39) rotate(-49.21)"/><path class="cls-11" d="M219.38,227.31s-.52-15.7,16.93-18.63C236.31,208.67,222.7,212.62,219.38,227.31Z" transform="translate(-13.8 -28)"/><circle class="cls-11" cx="223.54" cy="230.64" r="1.35" transform="translate(-104.84 137.8) rotate(-34.25)"/><text class="cls-12" transform="translate(20.35 111.53)">종합병원 SI</text><text class="cls-13" transform="translate(308.6 60.94)">병원 정보<tspan x="-26.49" y="23.76">시스템 위탁운영</tspan></text><text class="cls-13" transform="translate(383.4 241.86)">중소병원<tspan x="-28.71" y="23.76">의료정보 패키지</tspan></text><text class="cls-13" transform="translate(247.72 377.13)">병원 ERP<tspan x="2.3" y="23.76">구축사업</tspan></text><text class="cls-13" transform="translate(38.84 326.34)">병원 정보<tspan x="-17.66" y="23.76">시스템 컨설팅</tspan></text></svg>