<svg id="레이어_1" data-name="레이어 1" xmlns="http://www.w3.org/2000/svg" viewBox="0 0 492.51 488.04"><defs><style>.cls-1{fill:#666669;}.cls-2{fill:#f76037;}.cls-3{fill:#848fc9;}.cls-4{fill:#828dc8;}.cls-5{font-size:27.7px;}.cls-5,.cls-6,.cls-7,.cls-8{fill:#fff;font-family:NanumBarunGothicOTFBold-KSCpc-EUC-H, NanumBarunGothicOTF;font-weight:700;}.cls-6{font-size:21.31px;}.cls-7{font-size:63.93px;}.cls-8{font-size:38.36px;}</style></defs><title>EMR</title><rect class="cls-1" x="334.04" y="277.64" width="8.52" height="95.89" transform="translate(-141.67 274.52) rotate(-39.25)"/><rect class="cls-1" x="327.64" y="140.19" width="95.89" height="8.52" transform="translate(-18.67 257.25) rotate(-39.25)"/><rect class="cls-1" x="100.7" y="305.34" width="95.89" height="8.52" transform="translate(-174.35 150.92) rotate(-39.25)"/><rect class="cls-1" x="132.66" y="87.98" width="8.52" height="95.89" transform="translate(-68.01 123.67) rotate(-45)"/><polygon class="cls-2" points="412.05 334.61 323.46 334.61 279.17 411.32 323.46 488.04 412.05 488.04 456.34 411.32 412.05 334.61"/><circle class="cls-3" cx="238.86" cy="211.99" r="112.41"/><circle class="cls-4" cx="432.31" cy="74.49" r="60.2"/><circle class="cls-3" cx="60.2" cy="60.2" r="60.2"/><circle class="cls-4" cx="65.79" cy="354.71" r="60.2"/><text class="cls-5" transform="translate(35.49 52.02)">진료<tspan x="-10.44" y="33.24" xml:space="preserve"> EMR </tspan></text><text class="cls-5" transform="translate(407.34 65.87)">간호<tspan x="-10.44" y="33.24" xml:space="preserve"> EMR </tspan></text><text class="cls-6" transform="translate(13.23 361)">보안 및 인증</text><text class="cls-7" transform="translate(171.93 229.89)">EMR</text><text class="cls-8" transform="translate(322.92 422.06)">iEMR</text></svg>