<svg id="레이어_1" data-name="레이어 1" xmlns="http://www.w3.org/2000/svg" viewBox="0 0 496.45 437.42"><defs><style>.cls-1{fill:none;stroke:#ffb600;stroke-miterlimit:10;}.cls-2{fill:#515151;}.cls-3{fill:#ff905f;}.cls-4{fill:#6ca8ff;}.cls-5{fill:#c8b6da;}.cls-6{fill:#93dd52;}.cls-7{fill:#9ddada;}.cls-8{fill:#65b4c9;}.cls-9{font-size:23px;fill:#ffb600;}.cls-10,.cls-11,.cls-9{font-family:KoPubDotumPB-KSCpc-EUC-H, KoPubDotum_Pro;font-weight:700;}.cls-10{font-size:15px;}.cls-11{font-size:18px;fill:#ff3e5f;}</style></defs><title>iEMR</title><rect class="cls-1" x="179" y="134.9" width="143" height="44" rx="12" ry="12"/><path class="cls-2" d="M396.69,138.08c-.42-.06-.38-.46-.48-.73q-2.87-7.82-5.71-15.65-10.11-27.76-20.23-55.52c-.3-.81-.28-1.16.66-1.5,6.66-2.37,13.3-4.81,19.93-7.25.71-.26,1-.21,1.31.57q12.92,35.6,25.91,71.18c.31.86.1,1.11-.7,1.4-6.69,2.4-13.35,4.85-20,7.28Zm6.38-38.68c-.09-.28-.15-.46-.22-.64q-5.53-15.2-11.06-30.4c-.22-.61-.43-.77-1.1-.52q-6.49,2.42-13,4.73c-.69.25-.74.53-.5,1.17,2.41,6.54,4.78,13.1,7.16,19.66q2,5.37,3.92,10.73c.11.31,0,.8.72.56,4.54-1.68,9.1-3.32,13.65-5C402.81,99.65,403.12,99.65,403.07,99.4Zm3.57,19.19a4.85,4.85,0,0,0-4.91-4.82,4.86,4.86,0,0,0,.09,9.72A4.83,4.83,0,0,0,406.64,118.59Z" transform="translate(-10 -29.1)"/><path class="cls-2" d="M319.33,99.29q0-18.9,0-37.8c0-.88.2-1.13,1.11-1.12q10.59.06,21.18,0c.82,0,1.08.14,1.08,1q0,37.9,0,75.8c0,.74-.16,1-.94,1q-10.74,0-21.48,0c-.8,0-.95-.25-.94-1Q319.35,118.23,319.33,99.29Zm19.44-12.15c0-5.37,0-10.75,0-16.12,0-.72-.17-.92-.91-.92-4.6,0-9.2,0-13.79,0-.65,0-.89.13-.89.84q0,16.17,0,32.35c0,.69.2.86.87.86,4.6,0,9.2,0,13.79,0,.83,0,.92-.29.92-1C338.76,97.82,338.78,92.47,338.78,87.13Zm-2.92,34.53a4.84,4.84,0,0,0-4.84-4.89,4.85,4.85,0,0,0-.06,9.71A4.81,4.81,0,0,0,335.86,121.66Z" transform="translate(-10 -29.1)"/><path class="cls-2" d="M367.94,99.39q0,18.85,0,37.7c0,.8-.12,1.09-1,1.08q-10.69-.07-21.38,0c-.77,0-1-.21-1-1q0-37.95,0-75.9c0-.83.29-.93,1-.93q10.69,0,21.38,0c.83,0,1,.25,1,1Q367.92,80.39,367.94,99.39ZM364,87.13c0-5.37,0-10.75,0-16.12,0-.72-.16-.93-.9-.92q-6.85.06-13.7,0c-.72,0-1,.13-1,.94q0,16.08,0,32.15c0,.77.21,1,1,1,4.57,0,9.13,0,13.7,0,.82,0,.92-.28.92-1C364,97.82,364,92.47,364,87.13Zm-2.92,34.52a4.84,4.84,0,0,0-4.85-4.88,4.85,4.85,0,0,0,0,9.71A4.81,4.81,0,0,0,361.13,121.65Z" transform="translate(-10 -29.1)"/><path class="cls-2" d="M260.55,304.07q-27.41,0-54.82,0c-1,0-1.19-.22-1.18-1.18q.07-10.94,0-21.88c0-.81.17-1,1-1q55,0,110.08,0c.82,0,1,.19,1,1q-.05,11,0,22c0,.84-.19,1.08-1.06,1.07Q288.07,304.05,260.55,304.07Zm-15.81-16q-15.59,0-31.19,0c-.73,0-1,.12-1,.93q.1,3.06,0,6.13c0,.8.24.95,1,.94,3.68,0,7.37,0,11.05,0q25.5,0,51,0c.78,0,1.07-.12,1-1-.08-2-.08-3.94,0-5.91,0-.94-.25-1.11-1.14-1.11C265.23,288.08,255,288.07,244.73,288.07Zm53.9,3.91a6,6,0,0,0,12,.14,6,6,0,0,0-6-6.06A5.88,5.88,0,0,0,298.64,292Z" transform="translate(-10 -29.1)"/><path class="cls-2" d="M260.64,248q27.35,0,54.7,0c1.15,0,1.32.33,1.32,1.37q-.07,10.83,0,21.66c0,.8-.17,1-1,1q-55,0-110.06,0c-.93,0-1-.32-1-1.11q0-10.94,0-21.88c0-.85.21-1.06,1.06-1.06Q233.12,248.06,260.64,248Zm-16.1,16q15.53,0,31.07,0c.81,0,1-.17,1-1-.07-1.93-.07-3.87,0-5.8,0-1-.19-1.27-1.23-1.26q-28,.05-56,0c-2,0-3.94,0-5.91,0-.74,0-.93.22-.91.93,0,2,.07,4,0,6,0,.93.24,1.12,1.13,1.11C224,264,234.25,264,244.53,264Zm54.1-4a5.89,5.89,0,0,0,5.93,6,6,6,0,1,0-5.93-6Z" transform="translate(-10 -29.1)"/><path class="cls-2" d="M260.58,240q-27.4,0-54.8,0c-1,0-1.24-.22-1.24-1.22,0-7.26,0-14.51,0-21.77,0-.77.11-1,1-1q55.08,0,110.16,0c.76,0,1,.18,1,.95q0,11,0,22.1c0,.89-.29,1-1,1Q288.1,240,260.58,240Zm-16.07-16q-15.48,0-31,0c-.73,0-1,.14-1,.94.06,2.08.05,4.16,0,6.24,0,.74.23.89.93.89q31.13,0,62.25,0c.66,0,.88-.14.87-.84,0-2-.07-4.09,0-6.13,0-.94-.26-1.11-1.15-1.11C265.15,224,254.83,224,244.51,224Zm54.13,4A6,6,0,1,0,304.7,222,6,6,0,0,0,298.64,228Z" transform="translate(-10 -29.1)"/><path class="cls-2" d="M132.67,97.67c0-13.37,0-26.73,0-40.1a4.47,4.47,0,0,1,4.75-4.71c17.18.09,34.36.06,51.54,0a5.8,5.8,0,0,1,4.31,1.76q4.68,4.57,9.41,9.1a4.35,4.35,0,0,1,1.27,3.4q0,16.75,0,33.49c0,12.46-.06,24.92,0,37.38a4.42,4.42,0,0,1-4.52,4.56c-20.76-.06-41.51,0-62.27,0-2.88,0-4.48-1.63-4.48-4.55Q132.67,117.84,132.67,97.67Zm2.54-.09q0,20.17,0,40.34c0,2,.13,2.12,2.15,2.12h61.92c2,0,2.13-.15,2.13-2.15q0-17.1,0-34.2,0-18,0-36.09c0-2.1-.16-2.25-2.3-2.25-1.38,0-2.75,0-4.13,0a3.91,3.91,0,0,1-3.86-3.93c0-1.34,0-2.67,0-4,0-1.75-.24-2-1.94-2h-52c-1.74,0-2,.22-2,2Q135.2,77.47,135.21,97.58Zm58.44-39.08c0,1.24,0,2.18,0,3.13,0,.63.25,1.13.91,1.16,1.09.06,2.19,0,3.08,0Z" transform="translate(-10 -29.1)"/><path class="cls-2" d="M149.95,79.64c-2.6,0-5.19,0-7.79,0-.74,0-.91-.22-.91-.93q0-7.9,0-15.81c0-.83.3-1,1-.95,5.19,0,10.38,0,15.57,0,.85,0,1,.26,1,1.06,0,5.19,0,10.38,0,15.57,0,.95-.32,1.07-1.14,1.06C155.14,79.61,152.54,79.64,149.95,79.64Zm.05-2.55c1.8,0,3.61,0,5.41,0,.66,0,1-.08,1-.88,0-3.61,0-7.22,0-10.83,0-.66-.18-.87-.85-.87q-5.47,0-10.95,0c-.68,0-.85.21-.85.87q0,5.41,0,10.83c0,.66.17.89.85.88C146.39,77.06,148.19,77.09,150,77.09Z" transform="translate(-10 -29.1)"/><path class="cls-2" d="M168.82,97.44c8.69,0,17.38,0,26.07,0,.91,0,1.32.1,1.29,1.17S196,99.84,195,99.84q-26.18-.05-52.37,0c-.39,0-1,.26-1.14-.26a3.88,3.88,0,0,1,0-1.86c.11-.44.69-.23,1.05-.23h26.3Z" transform="translate(-10 -29.1)"/><path class="cls-2" d="M168.59,94.15H142.41a1.4,1.4,0,0,1-1.2-2.12.49.49,0,0,1,.48-.25h.71q26.18,0,52.35,0c.38,0,1-.27,1.11.3a4,4,0,0,1,0,1.86c-.11.4-.7.19-1.07.19Z" transform="translate(-10 -29.1)"/><path class="cls-2" d="M168.7,105.47c-8.69,0-17.37,0-26.06,0-.89,0-1.34-.09-1.3-1.17s.25-1.24,1.24-1.24q26.17,0,52.35,0c.39,0,1-.28,1.13.28a4,4,0,0,1,0,1.86c-.12.45-.69.21-1.05.21Z" transform="translate(-10 -29.1)"/><path class="cls-2" d="M168.93,130.38c8.76,0,17.53,0,26.29,0,1.11,0,1.11.44,1.15,1.29s-.31,1.13-1.18,1.12q-26.23,0-52.46,0c-.94,0-1.16-.25-1.16-1.16s.16-1.26,1.2-1.25C151.49,130.4,160.21,130.38,168.93,130.38Z" transform="translate(-10 -29.1)"/><path class="cls-2" d="M177.91,77.09c4.64,0,9.27,0,13.91,0,1.07,0,1,.53,1,1.22s.1,1.21-1,1.21q-14-.08-28.05,0c-1.07,0-1-.51-1-1.2s-.11-1.24,1-1.22C168.48,77.13,173.19,77.09,177.91,77.09Z" transform="translate(-10 -29.1)"/><path class="cls-2" d="M177.43,69.76c-4.63,0-9.26,0-13.9,0-.9,0-1-.34-1-1.08s.12-1.08,1-1.08q14,.05,27.91,0c1,0,1,.36,1.06,1.16s-.31,1-1.08,1C186.78,69.75,182.1,69.76,177.43,69.76Z" transform="translate(-10 -29.1)"/><path class="cls-2" d="M177.57,74.72c-4.67,0-9.34,0-14,0-.88,0-1-.3-1-1.07s.07-1.1,1-1.1q14,.05,28,0c1,0,.93.46.95,1.14s-.09,1-.93,1C186.91,74.7,182.24,74.72,177.57,74.72Z" transform="translate(-10 -29.1)"/><path class="cls-2" d="M175,64.09c-3.81,0-7.61,0-11.42,0-.88,0-1-.29-1-1.06s0-1.11,1-1.11q11.59.07,23.19,0c1,0,.93.46.93,1.13s0,1.06-.9,1C182.8,64.05,178.88,64.09,175,64.09Z" transform="translate(-10 -29.1)"/><path class="cls-3" d="M226,95.29a2.15,2.15,0,0,1,1.81-.64q24.64,0,49.27,0c.73,0,.89-.15.88-.71,0-2.1,0-4.2,0-6.3a1,1,0,0,1,.72-1.12,1.68,1.68,0,0,1,1.67.29l15.16,11c.84.61.84,1.2,0,1.81l-15.16,11.12a1.64,1.64,0,0,1-1.6.32,1,1,0,0,1-.79-1.14c0-2.12,0-4.24,0-6.36,0-.51-.15-.65-.81-.65l-49.34,0a2.15,2.15,0,0,1-1.81-.64Z" transform="translate(-10 -29.1)"/><path class="cls-4" d="M424.38,130.75a2.15,2.15,0,0,1,1.68.93q16.35,18.43,32.71,36.85c.48.55.7.57,1.11.19,1.54-1.43,3.13-2.8,4.69-4.2a1,1,0,0,1,1.31-.2,1.68,1.68,0,0,1,.89,1.44q.93,9.3,1.88,18.61c.1,1-.33,1.43-1.35,1.21l-18.38-4a1.64,1.64,0,0,1-1.3-1,1,1,0,0,1,.33-1.35c1.6-1.39,3.16-2.83,4.77-4.2.39-.33.38-.54-.05-1q-16.4-18.43-32.79-36.87a2.15,2.15,0,0,1-.72-1.78Z" transform="translate(-10 -29.1)"/><path class="cls-5" d="M72.79,185.3a2.15,2.15,0,0,0,1.66-1q15.9-18.82,31.81-37.63c.47-.56.69-.59,1.11-.21,1.57,1.39,3.2,2.72,4.79,4.09a1,1,0,0,0,1.32.17,1.68,1.68,0,0,0,.86-1.47q.71-9.32,1.43-18.65c.08-1-.37-1.42-1.38-1.17l-18.28,4.4a1.64,1.64,0,0,0-1.28,1,1,1,0,0,0,.36,1.34c1.63,1.36,3.23,2.75,4.87,4.09.4.32.4.53,0,1q-16,18.82-31.88,37.66a2.15,2.15,0,0,0-.68,1.8Z" transform="translate(-10 -29.1)"/><path class="cls-6" d="M459.95,317.91a2.15,2.15,0,0,0-1.62,1q-15.19,19.4-30.38,38.79c-.45.57-.67.61-1.1.26-1.62-1.33-3.3-2.6-4.94-3.91a1,1,0,0,0-1.32-.12,1.68,1.68,0,0,0-.8,1.5q-.36,9.34-.74,18.69c0,1,.42,1.4,1.43,1.12l18.1-5.08a1.64,1.64,0,0,0,1.24-1.07,1,1,0,0,0-.41-1.33c-1.68-1.29-3.33-2.63-5-3.9-.41-.31-.42-.52,0-1q15.24-19.4,30.46-38.82a2.15,2.15,0,0,0,.61-1.82Z" transform="translate(-10 -29.1)"/><path class="cls-7" d="M110.45,374.06a2.15,2.15,0,0,1-1.68-.93q-16.35-18.43-32.71-36.85c-.48-.55-.7-.57-1.11-.19-1.54,1.43-3.13,2.8-4.69,4.2a1,1,0,0,1-1.31.2,1.68,1.68,0,0,1-.89-1.44q-.93-9.3-1.88-18.61c-.1-1,.33-1.43,1.35-1.21l18.38,4a1.64,1.64,0,0,1,1.3,1,1,1,0,0,1-.33,1.35c-1.6,1.39-3.16,2.83-4.77,4.2-.39.33-.38.54.05,1q16.4,18.43,32.79,36.87a2.15,2.15,0,0,1,.72,1.78Z" transform="translate(-10 -29.1)"/><path class="cls-8" d="M301.18,421.22a2.15,2.15,0,0,0-1.8-.67q-24.63-.42-49.27-.85c-.73,0-.89-.16-.87-.72.08-2.1.08-4.2.14-6.3a1,1,0,0,0-.7-1.13,1.68,1.68,0,0,0-1.68.26l-15.35,10.68c-.85.59-.87,1.18,0,1.81l15,11.38a1.64,1.64,0,0,0,1.6.34,1,1,0,0,0,.81-1.13c0-2.12.09-4.24.09-6.36,0-.51.16-.64.82-.63l49.34.89a2.15,2.15,0,0,0,1.82-.61Z" transform="translate(-10 -29.1)"/><text class="cls-9" transform="translate(191.43 165.9)">의무기록서버</text><path class="cls-2" d="M351.88,316.82l-15.63,14.8a10.47,10.47,0,0,1-.91-1.38c-.16-.35-.45-.3-1.36.32q-18.45,12.51-36.92,25-16.86,11.4-33.71,22.81c-.8.54-1.1.65-1.26.32a8.53,8.53,0,0,0-1.08-1.61c-.18-.23,0-.43.62-.85q7.54-5.08,15.06-10.18l55.58-37.59c1.25-.85,1.25-.85.93-1.33l-.87-1.29Z" transform="translate(-10 -29.1)"/><text class="cls-10" transform="translate(91.6 12)">1. 자료 수집 운반</text><text class="cls-10" transform="translate(309.6 12)">2. 분철</text><text class="cls-11" transform="translate(307.07 327.98)">문제발생</text><path class="cls-2" d="M422.19,401.71c0-2.14-.66-2.79-2.78-2.74q-8.42.19-16.84,0c-2.12,0-2.8.63-2.77,2.76.14,12.7.15,25.4.21,38.11-.05,7.71,0,15.42-.21,23.13,0,2.15.61,2.78,2.74,2.72q8.45-.21,16.91,0c2.13.05,2.77-.57,2.74-2.72-.16-9.19-.15-18.39-.2-27.59C422,424.15,422,412.93,422.19,401.71Zm-10.74,58.59a4.45,4.45,0,1,1,4.45-4.45A4.45,4.45,0,0,1,411.45,460.29Zm6.23-47.18H405.21v-2.67h12.46Zm-12.46-4.45s.72-4.45,6.07-4.45a6.22,6.22,0,0,1,6.39,4.45Z" transform="translate(-10 -29.1)"/><path class="cls-2" d="M396.16,407.76c.41-8.53.41-8.53-8.14-8.53-22.39,0-44.78.06-67.17-.08-3.95,0-5.57,1-5.51,5.29q.3,24.24,0,48.48c0,4.25,1.34,4.91,5.64,4.75,7.42-.27,22,.42,22.1.29a23.81,23.81,0,0,1,2.61-2.21c7.51-4.12,14.85-3.92,22,.86,1.29.86,2.33,2,4.24,1.94,6.82-.17,13.64-.12,20.46,0,2.82,0,4-1.13,3.92-4-.17-5.18-.13-10.37-.18-15.56Q396.16,423.35,396.16,407.76Zm-5.18,40a2.58,2.58,0,0,1-.39.42,3,3,0,0,1-1,.53H382c-14.62,0-29.25,0-43.87,0H323c-2-.3-2.5-1.4-2.45-4.06.2-12.3.18-24.6,0-36.9,0-2.94.8-3.64,3.67-3.62,20.75.12,41.5.18,62.25,0,2.2,0,3.7.28,4.49,1.31Z" transform="translate(-10 -29.1)"/><path class="cls-2" d="M355.85,455.08c-13.76,0-15.61,11.45-15.61,11.45h32S369.61,455.08,355.85,455.08Z" transform="translate(-10 -29.1)"/><text class="cls-10" transform="translate(311.6 363)">4. 색인작업</text><path class="cls-2" d="M499,224.91c0-2.14-.66-2.79-2.78-2.74q-8.42.19-16.84,0c-2.12,0-2.8.63-2.77,2.76.14,12.7.15,25.4.21,38.11-.05,7.71,0,15.42-.21,23.13,0,2.15.61,2.78,2.74,2.72q8.45-.21,16.91,0c2.13.05,2.77-.57,2.74-2.72-.16-9.19-.15-18.39-.2-27.59C498.85,247.36,498.86,236.13,499,224.91ZM488.25,283.5a4.45,4.45,0,1,1,4.45-4.45A4.45,4.45,0,0,1,488.25,283.5Zm6.23-47.18H482v-2.67h12.46ZM482,231.87s.72-4.45,6.07-4.45a6.22,6.22,0,0,1,6.39,4.45Z" transform="translate(-10 -29.1)"/><path class="cls-2" d="M473,231c.41-8.53.41-8.53-8.14-8.53-22.39,0-44.78.06-67.17-.08-3.95,0-5.57,1-5.51,5.29q.3,24.24,0,48.48c0,4.25,1.34,4.91,5.64,4.75,7.42-.27,22,.42,22.1.29a23.81,23.81,0,0,1,2.61-2.21c7.51-4.12,14.85-3.92,22,.86,1.29.86,2.33,2,4.24,1.94,6.82-.17,13.64-.12,20.46,0,2.82,0,4-1.13,3.92-4-.17-5.18-.13-10.37-.18-15.56Q473,246.55,473,231Zm-5.18,40a2.58,2.58,0,0,1-.39.42,3,3,0,0,1-1,.53h-7.61c-14.62,0-29.25,0-43.87,0H399.83c-2-.3-2.5-1.4-2.45-4.06.2-12.3.18-24.6,0-36.9,0-2.94.8-3.64,3.67-3.62,20.75.12,41.5.18,62.25,0,2.2,0,3.7.28,4.49,1.31Z" transform="translate(-10 -29.1)"/><path class="cls-2" d="M432.65,278.28c-13.76,0-15.61,11.45-15.61,11.45h32S446.42,278.28,432.65,278.28Z" transform="translate(-10 -29.1)"/><text class="cls-10" transform="translate(380.6 186.46)">3. 이미지 스캐닝</text><text class="cls-10" transform="translate(363.6 278.46)">이미지 해상도 200dpi</text><path class="cls-2" d="M221.71,401.71c0-2.14-.66-2.79-2.78-2.74q-8.42.19-16.84,0c-2.12,0-2.8.63-2.77,2.76.14,12.7.15,25.4.21,38.11-.05,7.71,0,15.42-.21,23.13,0,2.15.61,2.78,2.74,2.72q8.45-.21,16.91,0c2.13.05,2.77-.57,2.74-2.72-.16-9.19-.15-18.39-.2-27.59C221.56,424.15,221.57,412.93,221.71,401.71ZM211,460.29a4.45,4.45,0,1,1,4.45-4.45A4.45,4.45,0,0,1,211,460.29Zm6.23-47.18H204.74v-2.67H217.2Zm-12.46-4.45s.72-4.45,6.07-4.45a6.22,6.22,0,0,1,6.39,4.45Z" transform="translate(-10 -29.1)"/><path class="cls-2" d="M195.68,407.76c.41-8.53.41-8.53-8.14-8.53-22.39,0-44.78.06-67.17-.08-3.95,0-5.57,1-5.51,5.29q.3,24.24,0,48.48c0,4.25,1.34,4.91,5.64,4.75,7.42-.27,22,.42,22.1.29a23.81,23.81,0,0,1,2.61-2.21c7.51-4.12,14.85-3.92,22,.86,1.29.86,2.33,2,4.24,1.94,6.82-.17,13.64-.12,20.46,0,2.82,0,4-1.13,3.92-4-.17-5.18-.13-10.37-.18-15.56Q195.69,423.35,195.68,407.76Zm-5.18,40a2.58,2.58,0,0,1-.39.42,3,3,0,0,1-1,.53h-7.61c-14.62,0-29.25,0-43.87,0H122.54c-2-.3-2.5-1.4-2.45-4.06.2-12.3.18-24.6,0-36.9,0-2.94.8-3.64,3.67-3.62,20.75.12,41.5.18,62.25,0,2.2,0,3.7.28,4.49,1.31Z" transform="translate(-10 -29.1)"/><path class="cls-2" d="M155.37,455.08c-13.76,0-15.61,11.45-15.61,11.45h32S169.13,455.08,155.37,455.08Z" transform="translate(-10 -29.1)"/><text class="cls-10" transform="translate(114.6 363)">5. 검수작업</text><path class="cls-2" d="M10,260a8.49,8.49,0,0,0,.39-2.29,36.61,36.61,0,1,1-.23,8.87c0-.17.1-.4-.16-.5Zm37-29.4A32.44,32.44,0,1,0,79.51,263,32.5,32.5,0,0,0,47,230.59Z" transform="translate(-10 -29.1)"/><path class="cls-2" d="M47,276.93A13.9,13.9,0,1,1,61,263.08,13.91,13.91,0,0,1,47,276.93Zm0-23.17a9.27,9.27,0,1,0,9.26,9.16A9.29,9.29,0,0,0,47.08,253.76Z" transform="translate(-10 -29.1)"/><path class="cls-2" d="M47,267.66A4.63,4.63,0,1,1,51.71,263,4.64,4.64,0,0,1,47,267.66Z" transform="translate(-10 -29.1)"/><path class="cls-2" d="M78.6,279.79a6.26,6.26,0,0,0,.29-1.69,27,27,0,1,1-.17,6.54c0-.12.07-.29-.12-.37Zm27.32-21.68A23.92,23.92,0,1,0,129.86,282,24,24,0,0,0,105.92,258.11Z" transform="translate(-10 -29.1)"/><path class="cls-2" d="M105.91,292.28a10.25,10.25,0,1,1,10.28-10.21A10.26,10.26,0,0,1,105.91,292.28Zm0-17.09a6.83,6.83,0,1,0,6.83,6.75A6.85,6.85,0,0,0,105.94,275.2Z" transform="translate(-10 -29.1)"/><path class="cls-2" d="M105.92,285.45a3.42,3.42,0,1,1,3.44-3.41A3.42,3.42,0,0,1,105.92,285.45Z" transform="translate(-10 -29.1)"/><text class="cls-10" transform="translate(6.6 188.54)">6. CD 생성</text></svg>