<svg id="레이어_1" data-name="레이어 1" xmlns="http://www.w3.org/2000/svg" viewBox="0 0 481 422.42"><defs><style>.cls-1{fill:#5abf5b;}.cls-2{font-size:30.3px;fill:#adadad;font-family:BMDoHyeon-OTF-KSCpc-EUC-H, BM DoHyeon OTF;}.cls-3{font-size:15.15px;fill:#afafaf;}.cls-10,.cls-16,.cls-3,.cls-5{font-family:KoPubDotumPB-KSCpc-EUC-H, KoPubDotum_Pro;font-weight:700;}.cls-4{fill:#bdbdfe;}.cls-5{font-size:22.26px;}.cls-10,.cls-16,.cls-5{fill:#fff;}.cls-6{letter-spacing:-0.02em;}.cls-7{letter-spacing:-0.03em;}.cls-8{letter-spacing:-0.03em;}.cls-9{fill:#92d2ea;}.cls-10{font-size:25.61px;}.cls-11{letter-spacing:-0.03em;}.cls-12{letter-spacing:-0.03em;}.cls-13{font-size:17.38px;}.cls-14{letter-spacing:0em;}.cls-15{letter-spacing:-0.01em;}.cls-16{font-size:28px;}.cls-17{letter-spacing:-0.03em;}.cls-18{letter-spacing:0em;}.cls-19{letter-spacing:-0.02em;}.cls-20{letter-spacing:0.01em;}</style></defs><title>VOIP</title><circle class="cls-1" cx="248.5" cy="215.41" r="160.5"/><text class="cls-2" transform="translate(13 24.24)">ELINK</text><text class="cls-3" transform="translate(138.82 12.69)">통화품질과 안전성을 최우선으로 하는 깨어있는 회사,<tspan x="0" y="18.18">고객의 입장을 먼저 생까하고 귀기울이는 신뢰있는 회사</tspan></text><circle class="cls-4" cx="89.5" cy="332.92" r="89.5"/><text class="cls-5" transform="translate(26.9 325.61)">P<tspan class="cls-6" x="13.56" y="0">S</tspan><tspan x="26.49" y="0">TN </tspan><tspan class="cls-7" x="61.28" y="0">W</tspan><tspan x="82.65" y="0">o</tspan><tspan class="cls-8" x="94.87" y="0">r</tspan><tspan x="101.77" y="0">d</tspan><tspan x="0" y="26.71">PSDN </tspan><tspan class="cls-7" x="65.24" y="26.71">W</tspan><tspan x="86.61" y="26.71">o</tspan><tspan class="cls-8" x="98.83" y="26.71">r</tspan><tspan x="105.73" y="26.71">d</tspan></text><circle class="cls-9" cx="392.72" cy="332.92" r="88.28"/><text class="cls-10" transform="translate(349.15 330.51)">IP <tspan class="cls-11" x="30.28" y="0">W</tspan><tspan x="54.87" y="0">o</tspan><tspan class="cls-12" x="68.93" y="0">r</tspan><tspan x="76.87" y="0">d</tspan><tspan class="cls-13"><tspan x="-34.45" y="20.86">(In</tspan><tspan class="cls-14" x="-14.38" y="20.86">t</tspan><tspan x="-8.5" y="20.86">ernet &amp; Ext</tspan><tspan class="cls-15" x="80.32" y="20.86">r</tspan><tspan x="86.07" y="20.86">anet)</tspan></tspan></text><text class="cls-16" transform="translate(140.56 166.08)">유무선 <tspan class="cls-17" x="81.37" y="0">V</tspan><tspan class="cls-18" x="97.92" y="0">oIP 서비스</tspan><tspan x="27.57" y="33.6">MVNO 서비스</tspan><tspan class="cls-19" x="-34.86" y="67.2">C</tspan><tspan x="-16.83" y="67.2">oIP &amp; MoIP 통합서비스</tspan><tspan x="40.04" y="100.8">IP</tspan><tspan class="cls-20" x="65.02" y="100.8">T</tspan><tspan class="cls-18" x="80.84" y="100.8">V 서비스</tspan></text></svg>