<svg id="레이어_1" data-name="레이어 1" xmlns="http://www.w3.org/2000/svg" viewBox="0 0 502.5 470.8"><defs><style>.cls-1,.cls-9{fill:#27a5f2;}.cls-10,.cls-2{fill:#46b2a5;}.cls-11,.cls-3,.cls-8{fill:#fff;}.cls-13,.cls-4{fill:#91c6e2;}.cls-12,.cls-5{fill:#40a8cc;}.cls-6{fill:#0a91e5;}.cls-7{fill:#52d8c8;}.cls-8{font-size:25.72px;font-family:BMDoHyeon-OTF-KSCpc-EUC-H, BM DoHyeon OTF;}.cls-10,.cls-12,.cls-13,.cls-9{font-size:15.83px;}.cls-10,.cls-11,.cls-12,.cls-13,.cls-9{font-family:KoPubDotumPB-KSCpc-EUC-H, KoPubDotum_Pro;font-weight:700;}.cls-11{font-size:19px;}</style></defs><title>서비스 구성도</title><path class="cls-1" d="M472,452.94a8.62,8.62,0,0,1-1.7-.54L453.16,446a3,3,0,0,1-1.24-.8,2.26,2.26,0,0,1-.75-1.52c0-.47.3-.66.83-.53a4,4,0,0,1,.44.15l14.45,5.39c.14.05.31.16.46.12l-.41-.45q-16.06-17.5-32.12-35a3.38,3.38,0,0,1-1.19-2.24l.41-.38a.43.43,0,0,0,.12.05,2.6,2.6,0,0,1,1.75,1.06l32.34,35.26.48.52c0-.2-.08-.34-.12-.48q-2.09-7.5-4.18-15c-.13-.46-.15-.83.09-1s.73-.15,1.28.23A3,3,0,0,1,467,432.8a6.06,6.06,0,0,1,.18.59q2.55,9.16,5.1,18.32a4.27,4.27,0,0,1,.11.88Z" transform="translate(-5 -24.2)"/><path class="cls-1" d="M410.41,378.9a10.49,10.49,0,0,1-2.32-.8L385.3,368.8a3,3,0,0,1-1.49-1.14,2.33,2.33,0,0,1-.41-2.13,1.13,1.13,0,0,1,1.5-.72,4.79,4.79,0,0,1,.6.22l19.25,7.86a1.09,1.09,0,0,0,.63.18l-.41-.63Q389.06,347.69,373.13,323c-.74-1.14-1.13-2.13-.73-3.14l.8-.51c.05,0,.11.08.15.08a2.68,2.68,0,0,1,2.14,1.52q16,24.93,32.06,49.85l.47.74c0-.28,0-.47,0-.68q.41-10.48.82-21a1.55,1.55,0,0,1,.63-1.42,1.56,1.56,0,0,1,1.83.35,2.8,2.8,0,0,1,1.06,2,6.91,6.91,0,0,1,0,.83q-.51,12.81-1,25.61a5.71,5.71,0,0,1-.25,1.22Z" transform="translate(-5 -24.2)"/><path class="cls-1" d="M485.46,61.43a10.49,10.49,0,0,1-.55,2.39q-3.42,11.83-6.84,23.66a3,3,0,0,1-1,1.61,2.33,2.33,0,0,1-2.08.63,1.13,1.13,0,0,1-.88-1.42,4.79,4.79,0,0,1,.16-.62l5.77-20a1.09,1.09,0,0,0,.11-.65l-.58.47Q456.69,86,433.79,104.45c-1.06.86-2,1.35-3,1.06l-.6-.74c0-.05.07-.11.06-.16a2.68,2.68,0,0,1,1.29-2.29l46.16-37.18.68-.55-.68,0L456.73,66a1.55,1.55,0,0,1-1.48-.47,1.56,1.56,0,0,1,.15-1.86,2.8,2.8,0,0,1,1.88-1.26,6.91,6.91,0,0,1,.83-.08l25.58-1.72a5.71,5.71,0,0,1,1.24.12Z" transform="translate(-5 -24.2)"/><path class="cls-1" d="M411.4,131.13a10.49,10.49,0,0,1,.46,2.4q1.63,12.2,3.26,24.41a3,3,0,0,1-.24,1.86,2.33,2.33,0,0,1-1.65,1.41,1.13,1.13,0,0,1-1.37-.94,4.79,4.79,0,0,1-.11-.63Q410.37,149.34,409,139a1.09,1.09,0,0,0-.16-.64l-.34.66q-13.54,26.12-27.07,52.25c-.63,1.21-1.29,2-2.36,2.2l-.84-.44c0-.06,0-.13,0-.17a2.68,2.68,0,0,1,.26-2.61q13.65-26.3,27.29-52.61l.4-.78-.61.29-18.59,9.72a1.55,1.55,0,0,1-1.54.16,1.56,1.56,0,0,1-.61-1.76A2.8,2.8,0,0,1,386,143.4a6.91,6.91,0,0,1,.73-.4l22.72-11.87a5.71,5.71,0,0,1,1.19-.39Z" transform="translate(-5 -24.2)"/><circle class="cls-2" cx="87.29" cy="242.51" r="87.29"/><path class="cls-2" d="M88,255.9c0-.27,0-.55,0-.82q0-9.67,0-19.33c0-.57.12-.76.73-.76q5.72,0,11.43,0c.62,0,.74.19.73.76q0,9.67,0,19.33c0,.27,0,.55,0,.82Z" transform="translate(-5 -24.2)"/><path class="cls-3" d="M62.51,260.9q0-16.72,0-33.44c0-1.38.92-2.2,2.08-1.83A1.48,1.48,0,0,1,65.7,227c0,.27,0,.55,0,.83q0,14.53,0,29.07c0,.69.19.82.84.81q7.27,0,14.53,0c.59,0,.74-.15.74-.74,0-6.48,0-13,0-19.43,0-.65.18-.76.78-.76q8.89,0,17.77,0c.65,0,.76.18.76.78,0,6.45,0,12.9,0,19.35,0,.6.11.8.76.79q7.27,0,14.53,0c.69,0,.81-.2.81-.84q0-13.78,0-27.56a3.17,3.17,0,0,1,.09-1.12,1.61,1.61,0,0,1,3.1.4,6.91,6.91,0,0,1,0,.75q0,15.78,0,31.55H97.91c0-.27,0-.55,0-.82q0-9.67,0-19.33c0-.57-.12-.76-.73-.76q-5.72,0-11.43,0c-.62,0-.74.19-.73.76q0,9.67,0,19.33c0,.27,0,.55,0,.82Z" transform="translate(-5 -24.2)"/><path class="cls-3" d="M130,226.11c-1.11,1.39-1.86,1.43-3.19.16Q109.38,209.61,92,192.94c-.46-.44-.67-.41-1.11,0q-17.23,16.52-34.49,33a9.89,9.89,0,0,1-1,.9,1.53,1.53,0,0,1-2-.2,1.58,1.58,0,0,1-.13-2.06,3.55,3.55,0,0,1,.41-.44q18.66-17.86,37.32-35.72c.38-.37.58-.42,1,0q18.64,17.88,37.31,35.72a10.19,10.19,0,0,1,.75.9Z" transform="translate(-5 -24.2)"/><path class="cls-3" d="M110.5,193.42c2,0,4,0,5.94,0,.53,0,.73.07.72.68,0,4,0,7.92,0,11.88,0,1.1-.52,1.79-1.42,1.9a1.64,1.64,0,0,1-1.82-1.8c0-2.88,0-5.77,0-8.65,0-.68-.18-.82-.83-.81-2.93,0-5.87,0-8.8,0a1.52,1.52,0,0,1-1.59-1.38,1.58,1.58,0,0,1,1.18-1.76,3.23,3.23,0,0,1,.75,0Z" transform="translate(-5 -24.2)"/><path class="cls-3" d="M62.73,315.19a2.56,2.56,0,1,1-2.55-2.59A2.56,2.56,0,0,1,62.73,315.19Z" transform="translate(-5 -24.2)"/><path class="cls-3" d="M29.27,317.28V277.09c.09,0,.1-.1.13-.18.83-2.87,2.58-4.2,5.53-4.2,16.92,0,33.83,0,50.75,0a5.36,5.36,0,0,1,5.39,5.37q0,19.1,0,38.2a5.25,5.25,0,0,1-5.38,5.36h-16c-2.55,0-5.11,0-7.66,0-.42,0-.62.06-.57.54a7.72,7.72,0,0,1,0,1.45c0,.47.1.6.58.59,5.25,0,10.5,0,15.75,0a2.5,2.5,0,0,1,.78.07,1.28,1.28,0,0,1,.35,2.29,1.8,1.8,0,0,1-1.1.24H42.52a3,3,0,0,1-.66-.05,1.27,1.27,0,0,1,0-2.49,3.25,3.25,0,0,1,.66,0H54.74c1.23,0,2.45,0,3.68,0,.38,0,.49-.1.46-.47a8.92,8.92,0,0,1,0-1.51c.06-.53-.15-.61-.63-.6q-11.86,0-23.71,0a5.19,5.19,0,0,1-5-3.76C29.45,317.67,29.48,317.43,29.27,317.28Zm30.89-8.54q13.85,0,27.7,0c.55,0,.65-.15.65-.67q0-11.25,0-22.51c0-2.41,0-4.83,0-7.24a2.89,2.89,0,0,0-3.05-3.08c-8.95.06-17.9,0-26.85,0h-24a2.6,2.6,0,0,0-2.46,1.43,3.52,3.52,0,0,0-.35,1.75q0,14.81,0,29.63c0,.59.2.67.71.67Q46.35,308.73,60.17,308.74Zm0,2.6H54.86q-11.19,0-22.38,0c-.55,0-.67.15-.65.67q.06,2,0,4a2.88,2.88,0,0,0,3.09,3.11c8.81-.05,17.61,0,26.42,0H85.48a2.75,2.75,0,0,0,3-3c0-1.33,0-2.66,0-4,0-.58-.13-.73-.72-.73Q74,311.36,60.17,311.34Z" transform="translate(-5 -24.2)"/><path class="cls-3" d="M137.71,328.94a12.49,12.49,0,0,1-3.17-4.69.81.81,0,0,0-.92-.62q-9,0-18,0a5.23,5.23,0,0,1-5.33-4.4,5.72,5.72,0,0,1-.07-1q0-14.34,0-28.69a5.29,5.29,0,0,1,5.54-5.52h18.09a5.29,5.29,0,0,1,5.45,5.37c0,1.8,0,3.59,0,5.39a1,1,0,0,0,.42.89c1.52,1.27,3.07,2.5,4.5,3.88a9.45,9.45,0,0,1,3,7.3c-.07,3.49,0,7,0,10.47a1.61,1.61,0,0,0,.34,1.08c2.08,2.65,4.14,5.31,6.2,8,.93,1.19.9,1.65-.17,2.62h-1c-.27-.29-.58-.53-.83-.85q-3.29-4.27-6.61-8.51a2.75,2.75,0,0,1-.6-1.77c0-3.76,0-7.52,0-11.28a6.58,6.58,0,0,0-2-4.94c-.89-.9-1.86-1.7-2.83-2.51-.11-.09-.2-.27-.43-.22q0,4.7,0,9.41a.78.78,0,0,0,.3.58c.63.62,1.27,1.25,1.88,1.89a1.32,1.32,0,1,1-1.86,1.88c-.45-.43-.88-.87-1.32-1.31q-2.94-2.94-5.88-5.87a1.47,1.47,0,0,0-2-.12,1.5,1.5,0,0,0-.24,2c1.69,2.42,3.32,4.88,5.09,7.23a6,6,0,0,1,1.38,4.51,9.39,9.39,0,0,0,2.37,7.49c.84,1,.59,1.79-.54,2.37Zm-1.24-23.12.14-.08v-.55q0-7.8,0-15.61a2.64,2.64,0,0,0-2.95-2.93H115.82a2.69,2.69,0,0,0-3,3q0,14.18,0,28.37a2.69,2.69,0,0,0,3,3h17.9c.17,0,.27,0,.27-.24,0-1.07,0-2.15,0-3.22a.67.67,0,0,0-.15-.33c-1.91-2.74-3.81-5.48-5.74-8.21a4.14,4.14,0,0,1-.85-3,4.13,4.13,0,0,1,7.08-2.44C135,304.34,135.75,305.08,136.47,305.81Z" transform="translate(-5 -24.2)"/><path class="cls-3" d="M141.6,272.38l-.24.28c-.47.47-1,.91-1.39,1.41-.29.32-.43.13-.63-.07a21.11,21.11,0,0,0-29-.15c-.43.41-.68.45-1,0a6.71,6.71,0,0,0-.69-.71c-.67-.67-.68-.68,0-1.34a23.87,23.87,0,0,1,32.56.32A3.2,3.2,0,0,0,141.6,272.38Z" transform="translate(-5 -24.2)"/><path class="cls-3" d="M124.74,270.79a18.46,18.46,0,0,1,12.68,5c.33.31.39.49,0,.79a11.67,11.67,0,0,0-1.18,1.18c-.24.27-.39.23-.63,0a15.24,15.24,0,0,0-8.65-4.18,15.51,15.51,0,0,0-13,4.06c-.38.35-.58.38-.9,0a12.14,12.14,0,0,0-1.13-1.14c-.22-.21-.27-.33,0-.57a18.38,18.38,0,0,1,10.47-5A20.14,20.14,0,0,1,124.74,270.79Z" transform="translate(-5 -24.2)"/><path class="cls-3" d="M125,278.71a10.54,10.54,0,0,0-7.39,2.75c-.29.27-.45.31-.73,0a13.57,13.57,0,0,0-1.23-1.23c-.28-.25-.22-.38,0-.61a13.26,13.26,0,0,1,18-.07c.31.27.4.45,0,.75a9.84,9.84,0,0,0-1.14,1.14c-.29.33-.46.29-.77,0A10.11,10.11,0,0,0,125,278.71Z" transform="translate(-5 -24.2)"/><path class="cls-3" d="M128.68,293.2a1.36,1.36,0,0,1,1.39-1.28,1.33,1.33,0,1,1-1.39,1.28Z" transform="translate(-5 -24.2)"/><path class="cls-3" d="M120.75,293.25a1.31,1.31,0,1,1-1.32-1.34A1.32,1.32,0,0,1,120.75,293.25Z" transform="translate(-5 -24.2)"/><path class="cls-3" d="M124.76,291.91a1.33,1.33,0,1,1-.09,2.66,1.33,1.33,0,0,1,.09-2.66Z" transform="translate(-5 -24.2)"/><path class="cls-3" d="M124.75,307.78a1.33,1.33,0,1,1-.07,2.66,1.33,1.33,0,0,1,.07-2.66Z" transform="translate(-5 -24.2)"/><path class="cls-3" d="M120.75,309.09a1.31,1.31,0,1,1-1.35-1.31A1.33,1.33,0,0,1,120.75,309.09Z" transform="translate(-5 -24.2)"/><path class="cls-3" d="M123.41,303.79a1.29,1.29,0,0,1,1.36-1.28,1.32,1.32,0,0,1,1.29,1.3,1.34,1.34,0,0,1-1.34,1.33A1.32,1.32,0,0,1,123.41,303.79Z" transform="translate(-5 -24.2)"/><path class="cls-3" d="M124.75,315.7a1.29,1.29,0,0,1-1.34-1.31,1.31,1.31,0,0,1,1.32-1.32,1.34,1.34,0,0,1,1.32,1.28A1.32,1.32,0,0,1,124.75,315.7Z" transform="translate(-5 -24.2)"/><path class="cls-3" d="M130,299.84a1.31,1.31,0,1,1,1.32-1.33A1.31,1.31,0,0,1,130,299.84Z" transform="translate(-5 -24.2)"/><path class="cls-3" d="M124.75,299.84a1.29,1.29,0,0,1-1.34-1.3,1.31,1.31,0,0,1,1.32-1.33,1.34,1.34,0,0,1,1.32,1.28A1.32,1.32,0,0,1,124.75,299.84Z" transform="translate(-5 -24.2)"/><path class="cls-3" d="M118.12,303.84a1.31,1.31,0,0,1,2.62-.07,1.31,1.31,0,1,1-2.62.07Z" transform="translate(-5 -24.2)"/><path class="cls-3" d="M120.75,314.39a1.31,1.31,0,0,1-2.63,0,1.31,1.31,0,1,1,2.63,0Z" transform="translate(-5 -24.2)"/><path class="cls-3" d="M120.75,298.54a1.31,1.31,0,0,1-2.62,0,1.31,1.31,0,1,1,2.62,0Z" transform="translate(-5 -24.2)"/><circle class="cls-4" cx="464.25" cy="423.8" r="24"/><path class="cls-3" d="M460.34,433.62c.13.11.31.06.46.11a1.7,1.7,0,0,1,1,.73c1.2,1.87,2.39,3.75,3.63,5.6a2.3,2.3,0,0,1,.21,2.23,7.6,7.6,0,0,1-.58,1.1c-.34.61-.69,1.21-1.05,1.8a.33.33,0,0,0,0,.43,37.31,37.31,0,0,0,3.42,4,42.18,42.18,0,0,0,4.62,4.24.4.4,0,0,0,.53,0q1.22-.7,2.47-1.35a2.75,2.75,0,0,1,1.82-.33,1.52,1.52,0,0,1,.58.25l5.86,4a2,2,0,0,1,.57,2.19,2.1,2.1,0,0,1-.32.65,20.94,20.94,0,0,1-3.41,3.6,3,3,0,0,1-2.6.62,16.63,16.63,0,0,1-5.74-2.39,41.66,41.66,0,0,1-7-5.65,53.13,53.13,0,0,1-6.84-7.89,21.6,21.6,0,0,1-3.06-6,11.16,11.16,0,0,1-.37-1.73c0-.05,0-.12-.06-.15v-1.1c.19-.27.29-.6.51-.86,1.43-1.65,2.85-3.33,5-4.08Zm18.16,28.77a1.06,1.06,0,0,0,.86-.28c.21-.17.43-.33.63-.52a22.53,22.53,0,0,0,2.61-2.93,2.36,2.36,0,0,0,.24-.39.61.61,0,0,0-.24-.92c-1.84-1.25-3.69-2.49-5.52-3.76a1.1,1.1,0,0,0-1.24-.09l-.39.2c-1,.53-1.93,1.06-2.89,1.6a.37.37,0,0,1-.46,0c-.27-.2-.56-.38-.83-.59a48.77,48.77,0,0,1-6.75-6.59,19.25,19.25,0,0,1-1.85-2.46.39.39,0,0,1,0-.46c.51-.85,1-1.72,1.5-2.58a7.19,7.19,0,0,0,.47-.9.85.85,0,0,0-.08-.85c-1.24-1.9-2.47-3.82-3.71-5.72a.63.63,0,0,0-1-.27,2.64,2.64,0,0,0-.42.25,23.68,23.68,0,0,0-2.73,2.3,6.24,6.24,0,0,0-.83,1,1.16,1.16,0,0,0-.19.71,9,9,0,0,0,.5,2.58,21.84,21.84,0,0,0,3.25,5.89,57.86,57.86,0,0,0,8.57,9.18,29.71,29.71,0,0,0,6.24,4.35A11.07,11.07,0,0,0,478.5,462.39Z" transform="translate(-5 -24.2)"/><circle class="cls-5" cx="470.25" cy="44.3" r="23.5"/><path class="cls-3" d="M486.92,69.48q0,5.19,0,10.39c0,1.3.08,2.6,0,3.89A3.59,3.59,0,0,1,483.31,87H467.38a3.65,3.65,0,0,1-3.8-3.8q0-12,0-24.06c0-1.32-.08-2.64,0-4A3.59,3.59,0,0,1,467.06,52c.94,0,1.89,0,2.84,0h13.22a3.65,3.65,0,0,1,3.8,3.81Q486.93,62.62,486.92,69.48Zm-1.47,0c0-3.29,0-6.58,0-9.87,0-.27-.07-.33-.33-.33H465.38c-.27,0-.33.07-.33.33q0,9.87,0,19.75c0,.27.07.33.33.33h19.75c.27,0,.33-.07.33-.33Q485.44,74.4,485.45,69.47ZM475.27,81.14H466c-.32,0-.74-.11-.92.05s-.06.62-.06.94a9,9,0,0,0,0,1.6,2.19,2.19,0,0,0,2.27,1.77h15.82a2.18,2.18,0,0,0,2.27-2.25c0-.59,0-1.19,0-1.78,0-.28-.06-.36-.35-.35Zm0-23.34h9.88c.24,0,.34,0,.33-.31,0-.65,0-1.3,0-1.95a2.14,2.14,0,0,0-1.85-2.09,13.17,13.17,0,0,0-1.88,0H467.4A2.19,2.19,0,0,0,465,55.73c0,.58,0,1.16,0,1.74,0,.28.08.33.34.33Z" transform="translate(-5 -24.2)"/><path class="cls-3" d="M476.7,83.32a1.45,1.45,0,1,1-1.44-1.47A1.45,1.45,0,0,1,476.7,83.32Z" transform="translate(-5 -24.2)"/><path class="cls-3" d="M475.29,54.89h3.52a.73.73,0,0,1,.82.72.74.74,0,0,1-.81.74h-7.14a.73.73,0,0,1-.74-.44.69.69,0,0,1,.14-.79.8.8,0,0,1,.65-.22Z" transform="translate(-5 -24.2)"/><circle class="cls-6" cx="406.42" cy="360.68" r="39.54"/><circle class="cls-7" cx="340.5" cy="237.3" r="84.5"/><text class="cls-8" transform="translate(264.02 245.87)">METRO 070</text><circle class="cls-6" cx="407.42" cy="106.61" r="39.54"/><path class="cls-1" d="M188,265.06a9.9,9.9,0,0,1,1.82-1.4l19.08-13.07a2.84,2.84,0,0,1,1.67-.59,2.23,2.23,0,0,1,1.9.75,1,1,0,0,1-.19,1.53,4.52,4.52,0,0,1-.48.35l-16.11,11c-.16.11-.38.19-.46.41h.71q27.84,0,55.68,0c1.29,0,2.27.19,2.87,1v.88s-.12,0-.14.08a2.56,2.56,0,0,1-2.31.9h-56.9l.51.38,16.26,11.12c.49.34.83.71.81,1.2s-.45,1-1.21,1.25a2.7,2.7,0,0,1-2.13-.18,6.55,6.55,0,0,1-.65-.43l-19.87-13.59a5.35,5.35,0,0,1-.84-.81Z" transform="translate(-5 -24.2)"/><text class="cls-9" transform="translate(176.03 279.67)">초고속인터넷</text><text class="cls-10" transform="translate(120.03 349.17)">무선 AP</text><text class="cls-10" transform="translate(8.03 349.17)">PC 인터넷전화기</text><text class="cls-11" transform="translate(388.38 98.97)">이동 <tspan x="-5.53" y="22.8">통신사</tspan></text><text class="cls-11" transform="translate(390.14 353.97)">전화<tspan x="-8.28" y="22.8">사업자</tspan></text><text class="cls-12" transform="translate(441.03 12.67)">이동전화</text><text class="cls-13" transform="translate(415.03 466.67)">일반 유선전화</text></svg>