<svg id="레이어_1" data-name="레이어 1" xmlns="http://www.w3.org/2000/svg" viewBox="0 0 476.5 243.64"><defs><style>.cls-1{fill:#4e4e4e;}.cls-2{fill:#27a5f2;}.cls-3{font-size:20.4px;fill:#fff;}.cls-3,.cls-6,.cls-7{font-family:KoPubDotumPB-KSCpc-EUC-H, KoPubDotum_Pro;font-weight:700;}.cls-4{fill:#23739b;}.cls-5,.cls-6{fill:#4d4d4d;}.cls-6{font-size:21px;}.cls-7{font-size:14px;}</style></defs><title>옥외광고물관리</title><path class="cls-1" d="M37.68,246.84q0-32,0-63.94c0-5.7,3.67-9.36,9.39-9.36h97.46c5.61,0,9.31,3.68,9.31,9.26q0,64,0,128c0,5.57-3.71,9.27-9.3,9.27H46.9c-5.48,0-9.22-3.72-9.22-9.18Q37.68,278.89,37.68,246.84Zm58.08,24.08c-16.94,0-33.87,0-50.81,0-1.47,0-1.77.41-1.77,1.82.06,12.79,0,25.58,0,38.37,0,2.9.63,3.52,3.56,3.52h98c2.91,0,3.54-.63,3.54-3.55,0-12.79,0-25.58,0-38.37,0-1.42-.32-1.79-1.77-1.79C129.63,270.94,112.69,270.92,95.76,270.92Zm0-5.54c16.94,0,33.87,0,50.8,0,1.47,0,1.78-.4,1.77-1.81q-.09-19,0-38c0-1.32-.29-1.72-1.68-1.72q-50.89.06-101.78,0c-1.37,0-1.69.38-1.69,1.71q.08,19,0,38c0,1.41.32,1.82,1.78,1.82C61.9,265.37,78.83,265.39,95.77,265.39Zm0-47c16.88,0,33.76,0,50.64,0,1.64,0,2-.48,1.94-2-.06-11.29,0-22.58,0-33.88,0-2.8-.66-3.45-3.46-3.45H46.68c-2.81,0-3.46.65-3.46,3.44,0,11.35,0,22.7,0,34,0,1.64.53,1.83,1.95,1.83Q70.44,218.33,95.76,218.37Z" transform="translate(-19.75 -122.72)"/><path class="cls-1" d="M85.54,292.46h23.83a7.48,7.48,0,0,1,1.38,0,2.76,2.76,0,0,1,0,5.46,7.9,7.9,0,0,1-1.55,0H61.76c-.35,0-.69,0-1,0a2.76,2.76,0,1,1,0-5.52c.57,0,1.15,0,1.73,0Z" transform="translate(-19.75 -122.72)"/><path class="cls-1" d="M140,293.8a9.68,9.68,0,1,1-9.68-9.63A10.24,10.24,0,0,1,140,293.8Zm-5.53.08c0-2.66-1.49-4.18-4.15-4.18s-4.09,1.46-4.14,4,1.43,4.24,4.06,4.27S134.46,296.52,134.48,293.88Z" transform="translate(-19.75 -122.72)"/><path class="cls-1" d="M85.56,245.45h23.83a7.29,7.29,0,0,1,1.38,0,2.76,2.76,0,0,1,0,5.46,6.06,6.06,0,0,1-1.21,0H61.4c-.29,0-.58,0-.86,0a2.76,2.76,0,0,1,0-5.51c.63-.05,1.27,0,1.9,0Z" transform="translate(-19.75 -122.72)"/><path class="cls-1" d="M140,246.76a9.68,9.68,0,1,1-9.7-9.61A10.24,10.24,0,0,1,140,246.76Zm-9.65-4.08c-2.67,0-4.18,1.49-4.18,4.16s1.46,4.09,4,4.14,4.24-1.44,4.27-4.07S133,242.7,130.36,242.69Z" transform="translate(-19.75 -122.72)"/><path class="cls-1" d="M85.54,192.9h23.83a7.52,7.52,0,0,1,1.38,0,2.76,2.76,0,0,1,0,5.46,7.91,7.91,0,0,1-1.55,0H61.76c-.35,0-.69,0-1,0a2.76,2.76,0,1,1,0-5.52c.46,0,.92,0,1.38,0Z" transform="translate(-19.75 -122.72)"/><path class="cls-1" d="M130.32,186a9.68,9.68,0,1,1-9.67,9.64A10.23,10.23,0,0,1,130.32,186Zm4.16,9.69c0-2.66-1.51-4.17-4.17-4.16a3.74,3.74,0,0,0-4.12,4c0,2.68,1.45,4.23,4.08,4.25S134.47,198.33,134.48,195.68Z" transform="translate(-19.75 -122.72)"/><rect class="cls-2" width="148" height="35" rx="12" ry="12"/><text class="cls-3" transform="translate(32.51 23)">시 군 구청</text><rect class="cls-2" x="1.67" y="208.64" width="148" height="35" rx="12" ry="12"/><text class="cls-3" transform="translate(40.09 231.64)">관리 서버</text><rect class="cls-4" x="305" width="148" height="35" rx="12" ry="12"/><text class="cls-3" transform="translate(322.68 23)">현장 행정업무</text><path class="cls-5" d="M372.74,246.5q0,26.45,0,52.89c0,5.2-3,8.14-8.19,8.14H305.06c-5.05,0-8.06-3-8.06-8q0-53,0-106c0-5.2,3-8.14,8.19-8.14h59.49c5.05,0,8.05,3,8.06,8Q372.74,219.93,372.74,246.5ZM368.92,244q0-22,0-44c0-1.12-.29-1.39-1.39-1.39q-32.68.05-65.35,0c-1.09,0-1.41.23-1.41,1.38q.05,43.91,0,87.83c0,1.13.31,1.37,1.4,1.37q32.68-.05,65.35,0c1.07,0,1.41-.21,1.4-1.36C368.9,273.23,368.92,258.62,368.92,244ZM334.8,303.12c4.19.28,5.17-1.12,4.93-4.9a.91.91,0,0,1,0-.12c.25-3.56-.86-4.78-4.76-4.77s-5.05.83-5,5C329.95,302.19,331,303.39,334.8,303.12Zm-18-7.16c-1.42,0-2.85,0-4.27,0a2.25,2.25,0,0,0-2.38,2.24,2.22,2.22,0,0,0,2.26,2.37c2.88.07,5.77.06,8.66,0a2.31,2.31,0,1,0-.12-4.62C319.57,295.94,318.19,296,316.8,296Zm36.11,0c-1.42,0-2.85,0-4.27,0a2.24,2.24,0,0,0-2.31,2.18,2.21,2.21,0,0,0,2.2,2.42c2.92.07,5.85.07,8.78,0a2.3,2.3,0,1,0-.12-4.61C355.76,295.94,354.33,296,352.91,296ZM334.75,192.7h10.62c.66,0,1.45.06,1.44-.86s-.76-.88-1.44-.88h-21c-.67,0-1.44,0-1.44.87s.78.86,1.44.86Z" transform="translate(-19.75 -122.72)"/><path class="cls-5" d="M442,295.64c-16.38,0-32.75,0-49.13.05-1.76,0-1.93-.57-1.85-2,.69-11.48,9-20.76,20.66-22.92,4.55-.85,9.14-1.47,13.46-3.29,2-.86,3.42-2,3.45-4.35s.22-4.51.35-6.77a1.75,1.75,0,0,0-.59-1.47c-2.95-2.77-3.81-6.43-4.3-10.23a22.13,22.13,0,0,1-.32-2.54c0-1-.24-1.48-1.32-1.7s-1.5-1.2-1.77-2.16c-.81-2.87-1.73-5.72-2.33-8.64-.35-1.68-.56-3.6,1.46-4.66.75-.4.12-.84,0-1.21a34.83,34.83,0,0,1-1-16.66,21.33,21.33,0,0,1,18.23-16.67,29.85,29.85,0,0,1,13.92,1c8.76,3,14.31,10.21,14.66,19.44a35.7,35.7,0,0,1-1.54,13c-.1.3-.61.71.08,1,1.82.87,1.84,2.62,1.53,4.12-.66,3.21-1.62,6.37-2.51,9.53-.2.7-.62,1.55-1.33,1.65-1.67.23-1.6,1.42-1.76,2.59-.22,1.63-.53,3.25-.76,4.88a12,12,0,0,1-3.39,6.75,3.09,3.09,0,0,0-.93,2.62c.19,2.25.15,4.51.44,6.76a3.79,3.79,0,0,0,2.52,3.25,48.08,48.08,0,0,0,12.32,3.29c9,1.36,16,5.65,20.21,14A26.87,26.87,0,0,1,493,294c.14,1.44-.34,1.67-1.67,1.67Q466.65,295.6,442,295.64Z" transform="translate(-19.75 -122.72)"/><rect class="cls-4" x="281.5" y="208.64" width="195" height="35" rx="12" ry="12"/><text class="cls-3" transform="translate(299.18 231.64)">담당공무원 현장조사</text><text class="cls-6" transform="translate(285.35 122.38)">UMPC</text><path class="cls-2" d="M277.21,219.11a13.73,13.73,0,0,1-2.52,1.95l-26.46,18.13a4,4,0,0,1-2.32.82,3.09,3.09,0,0,1-2.64-1,1.43,1.43,0,0,1,.27-2.12,6.27,6.27,0,0,1,.67-.49L266.55,221c.22-.15.52-.27.64-.56h-1q-38.61,0-77.23,0c-1.79,0-3.16-.27-4-1.39v-1.22c.07,0,.16-.06.19-.11.63-.93,1.73-1.25,3.2-1.25h78.93c-.29-.22-.49-.37-.71-.52l-22.56-15.43c-.69-.47-1.16-1-1.12-1.66s.62-1.4,1.68-1.74a3.75,3.75,0,0,1,3,.25,9.09,9.09,0,0,1,.91.59q13.78,9.43,27.56,18.86a7.42,7.42,0,0,1,1.17,1.12Z" transform="translate(-19.75 -122.72)"/><path class="cls-4" d="M185,266.89a13.73,13.73,0,0,1,2.52-1.95L214,246.82a4,4,0,0,1,2.32-.82,3.09,3.09,0,0,1,2.64,1,1.43,1.43,0,0,1-.27,2.12,6.27,6.27,0,0,1-.67.49L195.66,265c-.22.15-.52.27-.64.56h1q38.61,0,77.23,0c1.79,0,3.16.27,4,1.39v1.22c-.07,0-.16.06-.19.11-.63.93-1.73,1.25-3.2,1.25H194.89c.29.22.49.37.71.52l22.56,15.43c.69.47,1.16,1,1.12,1.66s-.62,1.4-1.68,1.74a3.75,3.75,0,0,1-3-.25,9.09,9.09,0,0,1-.91-.59q-13.78-9.43-27.56-18.86A7.42,7.42,0,0,1,185,268Z" transform="translate(-19.75 -122.72)"/><text class="cls-7" transform="translate(165.25 46.28)">1. 옥외광고물 <tspan x="0" y="16.8" xml:space="preserve">   데이터 전송</tspan></text><text class="cls-7" transform="translate(154.25 190.28)">2. 불법 및 변조간판<tspan x="0" y="16.8" xml:space="preserve">   데이터 실시간 전송</tspan></text></svg>