<svg id="레이어_1" data-name="레이어 1" xmlns="http://www.w3.org/2000/svg" viewBox="0 0 127.87 120.44"><defs><style>.cls-1{stroke:#000;stroke-miterlimit:10;}.cls-2{fill:#fff;}</style></defs><title>CRM</title><circle class="cls-1" cx="30.77" cy="38.32" r="16.27"/><path class="cls-1" d="M266.07,277.94c0,24-61.26,24-61.26,0s13.71-43.53,30.63-43.53S266.07,253.9,266.07,277.94Z" transform="translate(-204.31 -176.03)"/><path d="M295,176c-20.54,0-37.19,9.09-37.19,20.31,0,4.37,2.54,8.42,6.84,11.73l-2.79,11.61,12.46-6.46A60.84,60.84,0,0,0,295,216.65c20.54,0,37.19-9.09,37.19-20.31S315.53,176,295,176Z" transform="translate(-204.31 -176.03)"/><rect class="cls-2" x="68.67" y="10.12" width="39.33" height="4.05"/><rect class="cls-2" x="68.44" y="17.71" width="28.95" height="4.05"/></svg>