<svg id="레이어_1" data-name="레이어 1" xmlns="http://www.w3.org/2000/svg" viewBox="0 0 68.18 67.21"><defs><style>.cls-1{fill:none;stroke:#000;stroke-miterlimit:10;stroke-width:3px;}.cls-2{font-size:17.12px;font-family:BMDoHyeon-OTF-KSCpc-EUC-H, BM DoHyeon OTF;}</style></defs><title>ERP</title><path class="cls-1" d="M373.92,222.65h29.2c2.93,0,3.47.63,3.27,3.59-.46,6.86-.88,13.72-1.33,20.58-.26,3.95-.5,7.9-.83,11.84a2.71,2.71,0,0,1-2.93,2.82c-.34,0-.68,0-1,0H346.9c-2.12,0-3.1-.84-3.32-3-.28-2.81-.44-5.64-.64-8.46q-.66-9.33-1.31-18.67c-.13-1.82-.27-3.63-.38-5.45-.14-2.42.64-3.26,3-3.26Z" transform="translate(-339.75 -195.78)"/><path class="cls-1" d="M373.77,215.22c-9,0-18.09,0-27.14,0-.7,0-1-.11-.87-1.22.34-4.49.58-9,.88-13.49.17-2.49.78-3.23,2.65-3.23,5.22,0,10.44,0,15.66,0a3.55,3.55,0,0,1,3.45,2.2c1.93,3.71,4.46,5.23,7.92,5.09,7.51-.32,15-.1,22.54-.1.27,0,.55,0,.82,0,1.31.08,1.93.8,2,2.56.14,2.53.21,5.07.32,7.6,0,.44-.06.63-.39.59a5.06,5.06,0,0,0-.57,0Z" transform="translate(-339.75 -195.78)"/><text class="cls-2" transform="translate(16.34 52.73)">ERP</text></svg>