<svg id="레이어_1" data-name="레이어 1" xmlns="http://www.w3.org/2000/svg" viewBox="0 0 501.2 507.27"><defs><style>.cls-1{fill:#169b9b;}.cls-2{fill:none;stroke:#169b9b;stroke-width:3px;stroke-dasharray:12.06 12.06;}.cls-3{fill:#fff;stroke:#177499;stroke-width:5px;}.cls-4{font-size:28px;fill:#177499;font-family:NanumBarunGothicOTFBold-KSCpc-EUC-H, NanumBarunGothicOTF;font-weight:700;}</style></defs><title>cloud</title><path class="cls-1" d="M251.06,157.84h15.7c.28.51.79.36,1.22.4a104.54,104.54,0,0,1,14.49,2.38c38.68,9.17,68.91,41.41,75.43,80.49.54,3.25,1,6.52,1.51,9.78v15.31c-.49.29-.36.8-.4,1.23a106.37,106.37,0,0,1-2.38,14.48c-9.17,38.67-41.43,68.9-80.48,75.42-3.25.54-6.52,1-9.78,1.51H251.06c-.24-.42-.66-.36-1-.39a108.63,108.63,0,0,1-12.77-2c-39.22-8.3-70.81-41.3-77.35-80.74-.51-3.06-.55-6.19-1.49-9.17V250.1c.58-.34.38-.92.43-1.41A93.72,93.72,0,0,1,166,220.09c15.17-34.28,41.2-54.77,78.22-61.18C246.48,158.52,248.85,158.67,251.06,157.84ZM258.87,297q19.43,0,38.86,0a18.9,18.9,0,0,0,5.41-.65c9.57-2.79,15.66-9,17.25-18.82,1.57-9.63-2-17.46-10.09-23.07-1.54-1.07-3.85-1.45-4.77-2.84s-.46-3.68-.81-5.53c-2.84-15.26-14.88-27.27-29.7-29.7a36.64,36.64,0,0,0-38.5,18.34c-.72,1.28-1,1.52-2.27.42A15.39,15.39,0,0,0,209.4,251.3a1.82,1.82,0,0,1-1,2.6A23.15,23.15,0,0,0,220,297Z" transform="translate(-7.5 -4.23)"/><circle class="cls-2" cx="255.85" cy="258.11" r="199.54"/><circle class="cls-3" cx="70.6" cy="253.67" r="68.1"/><circle class="cls-3" cx="430.6" cy="253.67" r="68.1"/><circle class="cls-3" cx="251.42" cy="436.67" r="68.1"/><circle class="cls-3" cx="251.42" cy="70.6" r="68.1"/><text class="cls-4" transform="translate(203.57 78.44)">회계관리</text><text class="cls-4" transform="translate(35.91 243.44)">구매 /<tspan x="-15.6" y="33.6">물류관리</tspan></text><text class="cls-4" transform="translate(398.91 243.44)">인사 /<tspan x="-15.6" y="33.6">급여관리</tspan></text><text class="cls-4" transform="translate(203.57 449.44)">원가관리</text></svg>