<svg id="레이어_1" data-name="레이어 1" xmlns="http://www.w3.org/2000/svg" viewBox="0 0 486.86 494"><defs><style>.cls-1{fill:#ccc;}.cls-2{fill:#81adb1;}.cls-3{fill:#a1c2c5;}.cls-4{fill:#6098bc;}.cls-5{fill:#60bc70;}.cls-6{fill:#ef9f09;}.cls-7{fill:#82b92c;}.cls-8{fill:#3b5abd;}.cls-9{font-size:17px;fill:#fff;}.cls-10,.cls-11,.cls-9{font-family:NanumBarunGothicOTFBold-KSCpc-EUC-H, NanumBarunGothicOTF;font-weight:700;}.cls-10{font-size:19px;fill:#295669;}.cls-11{font-size:12px;fill:#6d6d6d;}</style></defs><title>ERP</title><rect class="cls-1" x="178" y="180" width="237" height="2" transform="translate(206.74 -168.1) rotate(46.84)"/><rect class="cls-1" x="368.5" y="65.5" width="2" height="237"/><rect class="cls-1" x="368.5" y="235.5" width="2" height="237"/><rect class="cls-1" x="158" y="329" width="237" height="2" transform="translate(-169.92 269.39) rotate(-43.16)"/><rect class="cls-1" x="101" y="232" width="237" height="2"/><path class="cls-2" d="M320.27,207.76v72.48C320.27,291.7,350.16,301,387,301s66.74-9.3,66.74-20.76V207.76Z" transform="translate(-19 -9)"/><ellipse class="cls-3" cx="368.02" cy="198.76" rx="66.74" ry="20.76"/><circle class="cls-4" cx="369.5" cy="64.5" r="64.5"/><circle class="cls-5" cx="368.5" cy="429.5" r="64.5"/><circle class="cls-6" cx="190.5" cy="381.5" r="64.5"/><circle class="cls-7" cx="190.5" cy="99.5" r="64.5"/><circle class="cls-8" cx="64.5" cy="236.5" r="64.5"/><text class="cls-9" transform="translate(319.37 60.33)">OCS 시스템과 <tspan x="11.11" y="20.4">연계된 ERP</tspan></text><text class="cls-9" transform="translate(152.46 81.33)">전표등록과<tspan x="15.16" y="20.4">다양한</tspan><tspan x="-9.49" y="40.8">보조원장 제공</tspan></text><text class="cls-9" transform="translate(19.87 223.33)">전방시스템과<tspan x="-9.49" y="20.4">연계된 자동분개</tspan><tspan x="15.16" y="40.8">기능제공</tspan></text><text class="cls-9" transform="translate(129.71 370.33)">(급여)지급항목과<tspan x="30.33" y="20.4">공개항목</tspan><tspan x="13.26" y="40.8">다양하게 설정</tspan></text><text class="cls-9" transform="translate(340.04 413.33)">동일물품<tspan x="7.58" y="20.4">창고별</tspan><tspan x="-15.16" y="40.8">이중관리기능</tspan></text><text class="cls-10" transform="translate(350.34 248.33)">ERP<tspan x="-27.47" y="22.8">서비스 특징</tspan></text><text class="cls-11" transform="translate(373.57 145.69)">인사급여, 예산회계구매<tspan x="21.85" y="14.4">재고 기능 포괄</tspan></text><text class="cls-11" transform="translate(137.1 180.69)">거래처, 입출금, 잔액 등 </text><text class="cls-11" transform="translate(136.66 309.69)">유연성 있는 시스템 제공</text></svg>