<svg id="레이어_1" data-name="레이어 1" xmlns="http://www.w3.org/2000/svg" viewBox="0 0 51.89 58.95"><defs><style>.cls-1{stroke:#000;stroke-miterlimit:10;}</style></defs><title>OCS</title><rect class="cls-1" x="38.44" y="38.38" width="10.03" height="2.13"/><rect class="cls-1" x="35.16" y="32.97" width="16.23" height="2.62"/><polygon class="cls-1" points="45.25 43.8 42.88 43.8 42.88 56.7 20.81 56.7 20.63 37.46 23.15 37.46 36.87 19.79 36.58 0.5 34.89 0.5 34.89 19.59 21.46 36.17 19.11 36.17 18.26 36.17 15.91 36.17 2.48 19.59 2.48 0.5 0.79 0.5 0.5 19.79 14.22 37.46 16.74 37.46 16.56 57.46 17.29 57.46 17.29 58.45 44.46 58.45 44.46 57.46 45.25 57.46 45.25 43.8"/><rect class="cls-1" x="29.32" y="0.5" width="3.47" height="8.68"/><rect class="cls-1" x="4.88" y="0.5" width="3.65" height="8.68"/></svg>