<?xml version="1.0" encoding="utf-8"?>
<!-- Generator: Adobe Illustrator 21.1.0, SVG Export Plug-In . SVG Version: 6.00 Build 0)  -->
<svg version="1.1" id="레이어_1" xmlns="http://www.w3.org/2000/svg" xmlns:xlink="http://www.w3.org/1999/xlink" x="0px"
	 y="0px" viewBox="0 0 820 614" style="enable-background:new 0 0 820 614;" xml:space="preserve">
<style type="text/css">
	.st0{fill:none;enable-background:new    ;}
	.st1{fill:#169B9B;stroke:#169B9B;stroke-width:3;}
	.st2{fill:#FFFFFF;}
	.st3{font-family:'NanumGothicExtraBold';}
	.st4{font-size:18px;}
	.st5{font-size:17px;}
	.st6{fill:#FFFFFF;stroke:#169B9B;stroke-width:3;}
	.st7{fill:#169B9B;}
	.st8{font-size:22px;}
	.st9{font-size:24px;}
	.st10{fill:#6B6B6B;}
</style>
<path class="st0" d="M0,0"/>
<path class="st0" d="M0,0"/>
<path class="st0" d="M0,0"/>
<path class="st0" d="M0,0"/>
<path id="사각형_1_복사_4" class="st1" d="M583,438h155v40H583V438z M416,438h155v40H416V438z M252,438h155v40H252V438z
	 M86,438h155v40H86V438z"/>
<text id="HIS사업부" transform="matrix(1 0 0 1 125.138 464.776)" class="st2 st3 st4">HIS사업부</text>
<text id="HealthCare컨텐츠사업부" transform="matrix(1 0 0 1 286.138 464.7756)" class="st2 st3 st4">ERP 사업부</text>
<text id="ERP사업부" transform="matrix(1 0 0 1 425.138 463.7759)" class="st2 st3 st5">HealthCare 사업부</text>
<text id="통신사업팀" transform="matrix(1 0 0 1 618.138 463.776)" class="st2 st3 st4">통신사업부</text>
<g>
	<rect id="_2nd_" x="467" y="301" class="st6" width="188" height="49"/>
	<rect id="_2nd" x="172" y="301" class="st6" width="188" height="49"/>
	<text id="자문_x2F_비즈니스그룹" transform="matrix(1 0 0 1 194.185 333.381)" class="st7 st3 st4">자문/비즈니스 그룹</text>
	<text id="경영지원팀" transform="matrix(1 0 0 1 507.185 333.381)" class="st7 st3 st8">경영지원팀</text>
	<g>
		<rect id="사각형_1" x="319" y="154" class="st1" width="188" height="49"/>
		<g>
			<text id="대표이사" transform="matrix(1 0 0 1 366.925 185.953)" class="st2 st3 st9">대표이사</text>
		</g>
	</g>
	<rect x="412" y="204.4" class="st10" width="2.2" height="194.6"/>
	<rect x="268.9" y="266" class="st10" width="297" height="1.6"/>
	<rect x="563.9" y="266" class="st10" width="2" height="33.3"/>
</g>
<rect x="267.8" y="266" class="st10" width="2.3" height="33.6"/>
<rect x="161.2" y="397" class="st10" width="501.5" height="2"/>
<rect x="160.9" y="397" class="st10" width="2.1" height="39.4"/>
<rect x="331" y="397" class="st10" width="2.1" height="39.4"/>
<rect x="501.5" y="398" class="st10" width="2.1" height="39.4"/>
<rect x="660.5" y="397" class="st10" width="2.1" height="39.4"/>
</svg>
